<svg width="512" height="512" fill="none" xmlns="http://www.w3.org/2000/svg">
  <path d="M256 21.996c-135.311 0-245.002 109.691-245.002 245.002 0 81.101 39.416 152.986 100.125 197.577h289.754c60.709-44.591 100.125-116.476 100.125-197.577 0-135.311-109.691-245.002-245.002-245.002z" fill="#194872"/>
  <path d="M381.1 11.988c-.299 5.176 2.498 10.239 8.311 15.049 15.227 12.601 32.576 33.483 36.494 38.28L400.19 93.122l-5.429 18.581 4.17 1.06c-.003 4.687.985 21.291 14.355 33.269 9.175 8.221 22.103 12.376 38.549 12.473 18.251-16.672 29.703-40.664 29.703-67.332C481.539 40.82 440.719 0 390.366 0c-.841 0-1.68.013-2.516.036-2.375 2.005-6.42 6.228-6.75 11.952z" fill="#DE445F"/>
  <path d="M390.366 0c-50.354 0-91.173 40.82-91.173 91.173s40.82 91.173 91.173 91.173c24.474 0 46.694-9.645 63.071-25.338-55.715.53-52.978-45.406-52.978-45.406l-3.821-.97 4.893-16.75 26.357-28.5s-20-25-37.522-39.5 0-25.882 0-25.882z" fill="#BE3157"/>
  <path d="M343.626 330.196c-6.724-3.117-13.764-5.814-21.166-8.095-21.549-6.639-43.911-.463-66.46-.463-22.549 0-44.911-6.176-66.46.463-7.402 2.28-14.441 4.978-21.166 8.095v165.65C195.585 506.271 225.121 512 256 512c30.878 0 60.415-5.728 87.626-16.154v-165.65z" fill="#72AEE5"/>
  <path d="M256 291.896c38.5 0 69.71-31.21 69.71-69.71 0-38.5-31.21-69.71-69.71-69.71-38.5 0-69.71 31.21-69.71 69.71 0 38.5 31.21 69.71 69.71 69.71z" fill="#FFC7AB"/>
  <path d="M400.877 437.147v-47.605c0-33.577-27.472-61.049-61.049-61.049v108.654h61.049z" fill="#91C8F2"/>
  <path d="M172.172 437.147V328.493c-33.577 0-61.049 27.472-61.049 61.049v47.605h61.049z" fill="#478AD4"/>
  <path d="M339.828 497.278c21.995-8.009 42.511-19.087 61.049-32.703v-29.382h-61.049v62.085zM111.123 464.575c18.538 13.616 39.054 24.694 61.049 32.703v-62.085h-61.049v29.382z" fill="#FFC7AB"/>
  <path d="M390.366 131.007c-6.167 0-11.165 4.999-11.165 11.165 0 6.167 4.999 11.165 11.165 11.165 6.166 0 11.165-4.999 11.165-11.165 0-6.167-4.999-11.165-11.165-11.165zM390.366 121.695c-5.574 0-10.093-4.519-10.093-10.093v-8.096c0-9.853 6.488-18.65 15.775-21.394 9.107-2.69 14.991-11.212 14.308-20.724-.687-9.58-8.394-17.511-17.926-18.447-10.794-1.056-20.424 6.466-21.914 17.134-.129.921-.194 1.864-.194 2.808 0 5.574-4.519 10.093-10.093 10.093s-10.093-4.519-10.093-10.093c0-1.877.131-3.762.388-5.602 2.99-21.429 22.286-36.551 43.879-34.429 19.191 1.885 34.705 17.832 36.087 37.093 1.367 19.052-10.445 36.129-28.724 41.527-.745.22-1.308 1.095-1.308 2.035v8.096c.001 5.573-4.518 10.092-10.092 10.092z" fill="#EEF4F8"/>
  <path d="M490.75 196.706c-35.004 5.777-103.242 21.844-110.993 60.04-7.655 37.72 66.05 85.13 74.374 154.37 29.473-40.441 46.871-90.244 46.871-144.118 0-24.434-3.594-48.024-10.252-70.292zM256 21.996c-51.944 0-100.103 16.179-139.74 43.753 20.592 21.621 51.917 42.294 91.96 32.299 51.836-12.938 63.604-52.103 65.889-75.385-5.979-.437-12.017-.667-18.109-.667zM61.1752 415.553c13.988-30.003 36.322-86.513 20.213-112.579-15.718-25.433-50.708-32.359-70.376-34.224.386 55.184 19.016 106.026 50.163 146.803z" fill="#3A668C"/>
  <path d="M89.3172 117.837c-.247 4.27 2.061 8.447 6.856 12.415 12.5608 10.395 26.8738 27.622 30.1058 31.579l-21.213 22.938-4.478 15.329 3.44.874c-.002 3.866.813 17.564 11.843 27.446 7.569 6.782 18.234 10.209 31.801 10.29 15.057-13.754 24.503-33.546 24.503-55.546 0-41.539-33.674-75.214-75.2138-75.214-.694 0-1.386.011-2.075.03-1.959 1.653-5.296 5.137-5.569 9.859z" fill="#DE445F"/>
  <path d="M96.9611 107.948c-41.54 0-75.214 33.674-75.214 75.214 0 41.539 33.674 75.214 75.214 75.214 20.1899 0 38.5199-7.957 52.0309-20.903-45.963.438-43.704-37.458-43.704-37.458l-3.152-.8 4.037-13.818 21.743-23.511s-16.499-20.624-30.9539-32.586c-14.455-11.962-.001-21.352-.001-21.352z" fill="#BE3157"/>
  <path d="M96.961 216.022c-5.087 0-9.211 4.124-9.211 9.21 0 5.087 4.124 9.211 9.211 9.211 5.087 0 9.211-4.124 9.211-9.211 0-5.086-4.124-9.21-9.211-9.21zM96.9609 208.341c-4.598 0-8.326-3.728-8.326-8.326v-6.679c0-8.128 5.352-15.386 13.0141-17.649 7.513-2.219 12.367-9.249 11.803-17.096-.567-7.903-6.924-14.446-14.7881-15.218-8.904-.871-16.849 5.334-18.078 14.135-.106.759-.16 1.538-.16 2.316 0 4.598-3.728 8.326-8.326 8.326-4.598 0-8.326-3.728-8.326-8.326 0-1.548.108-3.104.32-4.622 2.467-17.678 18.385-30.153 36.1981-28.403 15.832 1.555 28.631 14.711 29.771 30.6 1.128 15.717-8.617 29.805-23.696 34.258-.615.181-1.079.903-1.079 1.679v6.679c0 4.598-3.728 8.326-8.3271 8.326z" fill="#EEF4F8"/>
</svg>
